# xmcd CD database file
#
# Track frame offsets:
#	150
#	14911
#	27842
#	42595
#	56972
#	70234
#	81882
#	95464
#	110204
#	122618
#	136180
#	149636
#	163664
#	179938
#	196020
#	208616
#	221802
#	235897
#	252427
#	267388
#	283315
#	297275
#	312659
#	327412
#	343470
#
# Disc length: 4762 seconds
#
# Revision: 0
# Processed by: cddbd v1.5.2PL0 Copyright (c) Steve Scherf et al.
# Submitted via: CDex 1.51
#
DISCID=ae129819
DTITLE=Eddie Condon - The Classic Sessions 1928-1949 [CD1]
DYEAR=1900
DGENRE=Jazz
TTITLE0=Sugar
TTITLE1=China Boy
TTITLE2=Nobody's Sweetheart
TTITLE3=Liza
TTITLE4=Friars Point Shuffle
TTITLE5=Darktown Strutters Ball
TTITLE6=There'll Be Some Changes Made
TTITLE7=I Found A New Baby
TTITLE8=Jazz Me Blues
TTITLE9=Oh! Baby
TTITLE10=Indiana
TTITLE11=Makin' Friends
TTITLE12=I'm Gonna Stomp Mr. Henry Lee
TTITLE13=That's A Serious Thing
TTITLE14=Minor Drag
TTITLE15=Indiana
TTITLE16=Tailspin Blues
TTITLE17=I Need Someone Like You
TTITLE18=Hello Lola
TTITLE19=One Hour
TTITLE20=Girls Like You Were Meant For Boys Like Me
TTITLE21=Georgia
TTITLE22=I Can't Believe You're In Love With Me
TTITLE23=Darktown Strutters Ball
TTITLE24=You Rascal, You
EXTD=
EXTT0=
EXTT1=
EXTT2=
EXTT3=
EXTT4=
EXTT5=
EXTT6=
EXTT7=
EXTT8=
EXTT9=
EXTT10=
EXTT11=
EXTT12=
EXTT13=
EXTT14=
EXTT15=
EXTT16=
EXTT17=
EXTT18=
EXTT19=
EXTT20=
EXTT21=
EXTT22=
EXTT23=
EXTT24=
PLAYORDER=
